# xmcd
#
# Track frame offsets:
#	150
#	13380
#	26178
#	35952
#	54312
#	65895
#	78936
#	90681
#	104991
#	116817
#	134907
#	145896
#	161907
#	172977
#	182265
#
# Disc length: 2659 seconds
#
# Revision: 0
# Processed by: cddbd v1.5.2PL0 Copyright (c) Steve Scherf et al.
# Submitted via: EasyCDDAExtractor 11.1.0.1
#
DISCID=e60a610f
DTITLE=Craig Duncan and oters - Country Gospel Bluegrass Collection
DYEAR=1900
DGENRE=Country
TTITLE0=I'lll fly away
TTITLE1=Church in the wildwood
TTITLE2=Wings of a dove
TTITLE3=I love to tell the story
TTITLE4=Peace like a river
TTITLE5=Love lifted me
TTITLE6=Standing on the promises
TTITLE7=He leadeth me
TTITLE8=What a friend we have in jesus
TTITLE9=Blessed assurance
TTITLE10=Wonderful words of life
TTITLE11=I feel like travelin on
TTITLE12=Peace in the valley
TTITLE13=Power in the blood
TTITLE14=Sweet by and by
EXTD=
EXTT0=
EXTT1=
EXTT2=
EXTT3=
EXTT4=
EXTT5=
EXTT6=
EXTT7=
EXTT8=
EXTT9=
EXTT10=
EXTT11=
EXTT12=
EXTT13=
EXTT14=
PLAYORDER=
